<svg width="26" height="26" viewBox="0 0 26 26" fill="none" xmlns="http://www.w3.org/2000/svg">
<g clip-path="url(#clip0_151_3067)">
<path d="M22.8635 4.94118H20.127V6.99356C20.127 7.19121 20.088 7.38693 20.0124 7.56953C19.9368 7.75213 19.8259 7.91805 19.6861 8.05781C19.5464 8.19757 19.3805 8.30844 19.1979 8.38407C19.0152 8.45971 18.8195 8.49864 18.6219 8.49864C18.4242 8.49864 18.2285 8.45971 18.0459 8.38407C17.8633 8.30844 17.6974 8.19757 17.5576 8.05781C17.4179 7.91805 17.307 7.75213 17.2314 7.56953C17.1557 7.38693 17.1168 7.19121 17.1168 6.99356V4.94118H9.14673V6.99356C9.14673 7.39273 8.98816 7.77556 8.7059 8.05781C8.42364 8.34007 8.04082 8.49864 7.64165 8.49864C7.24248 8.49864 6.85965 8.34007 6.5774 8.05781C6.29514 7.77556 6.13657 7.39273 6.13657 6.99356V4.94118H3.40006C3.23726 4.93933 3.07573 4.97014 2.92504 5.0318C2.77435 5.09346 2.63756 5.18471 2.52275 5.30016C2.40794 5.41561 2.31744 5.5529 2.25662 5.70393C2.1958 5.85496 2.16588 6.01666 2.16863 6.17945V21.4902C2.16591 21.6501 2.19473 21.809 2.25343 21.9578C2.31213 22.1066 2.39956 22.2424 2.51074 22.3573C2.62192 22.4723 2.75466 22.5643 2.90138 22.628C3.0481 22.6917 3.20593 22.7258 3.36585 22.7285H22.8635C23.0234 22.7258 23.1812 22.6917 23.3279 22.628C23.4747 22.5643 23.6074 22.4723 23.7186 22.3573C23.8298 22.2424 23.9172 22.1066 23.9759 21.9578C24.0346 21.809 24.0634 21.6501 24.0607 21.4902V6.17945C24.0634 6.01953 24.0346 5.86064 23.9759 5.71185C23.9172 5.56306 23.8298 5.4273 23.7186 5.31231C23.6074 5.19732 23.4747 5.10536 23.3279 5.04168C23.1812 4.978 23.0234 4.94385 22.8635 4.94118ZM7.64165 18.6237H6.27339V17.2555H7.64165V18.6237ZM7.64165 15.2031H6.27339V13.8348H7.64165V15.2031ZM7.64165 11.7824H6.27339V10.4142H7.64165V11.7824ZM11.7464 18.6237H10.3782V17.2555H11.7464V18.6237ZM11.7464 15.2031H10.3782V13.8348H11.7464V15.2031ZM11.7464 11.7824H10.3782V10.4142H11.7464V11.7824ZM15.8512 18.6237H14.4829V17.2555H15.8512V18.6237ZM15.8512 15.2031H14.4829V13.8348H15.8512V15.2031ZM15.8512 11.7824H14.4829V10.4142H15.8512V11.7824ZM19.9559 18.6237H18.5877V17.2555H19.9559V18.6237ZM19.9559 15.2031H18.5877V13.8348H19.9559V15.2031ZM19.9559 11.7824H18.5877V10.4142H19.9559V11.7824Z" fill="white"/>
<path d="M7.64165 7.67767C7.82309 7.67767 7.9971 7.60559 8.1254 7.47729C8.2537 7.34899 8.32577 7.17498 8.32577 6.99354V2.88878C8.32577 2.70734 8.2537 2.53333 8.1254 2.40503C7.9971 2.27673 7.82309 2.20465 7.64165 2.20465C7.4602 2.20465 7.28619 2.27673 7.1579 2.40503C7.0296 2.53333 6.95752 2.70734 6.95752 2.88878V6.99354C6.95752 7.17498 7.0296 7.34899 7.1579 7.47729C7.28619 7.60559 7.4602 7.67767 7.64165 7.67767Z" fill="white"/>
<path d="M18.5877 7.67767C18.7691 7.67767 18.9431 7.60559 19.0714 7.47729C19.1997 7.34899 19.2718 7.17498 19.2718 6.99354V2.88878C19.2718 2.70734 19.1997 2.53333 19.0714 2.40503C18.9431 2.27673 18.7691 2.20465 18.5877 2.20465C18.4062 2.20465 18.2322 2.27673 18.1039 2.40503C17.9756 2.53333 17.9036 2.70734 17.9036 2.88878V6.99354C17.9036 7.17498 17.9756 7.34899 18.1039 7.47729C18.2322 7.60559 18.4062 7.67767 18.5877 7.67767Z" fill="white"/>
</g>
<defs>
<clipPath id="clip0_151_3067">
<rect width="24.6286" height="24.6286" fill="white" transform="translate(0.800293 0.836426)"/>
</clipPath>
</defs>
</svg>
