<svg width="11" height="21" viewBox="0 0 11 21" fill="none" xmlns="http://www.w3.org/2000/svg">
<path d="M10.4672 1.77434C10.5537 1.67821 10.6213 1.56512 10.6661 1.44154C10.711 1.31796 10.7323 1.1863 10.7287 1.05409C10.7252 0.921877 10.6969 0.791694 10.6454 0.670976C10.5939 0.550258 10.5203 0.441369 10.4288 0.350524C10.3373 0.25968 10.2296 0.18866 10.112 0.14152C9.99432 0.0943791 9.86898 0.0720411 9.7431 0.0757812C9.61723 0.0795213 9.49329 0.109266 9.37836 0.163318C9.26343 0.217369 9.15976 0.294668 9.07327 0.390802L0.924641 9.45327C0.756361 9.64023 0.662598 9.88776 0.662598 10.145C0.662598 10.4023 0.756361 10.6499 0.924641 10.8368L9.07327 19.9003C9.15919 19.9985 9.26283 20.0779 9.37819 20.1337C9.49354 20.1895 9.6183 20.2207 9.74522 20.2254C9.87214 20.2301 9.99869 20.2083 10.1175 20.1613C10.2364 20.1142 10.3451 20.0428 10.4374 19.9512C10.5298 19.8596 10.6039 19.7497 10.6554 19.6278C10.707 19.5058 10.7349 19.3744 10.7377 19.241C10.7405 19.1076 10.718 18.975 10.6715 18.8509C10.6251 18.7267 10.5556 18.6135 10.4672 18.5178L2.93975 10.145L10.4672 1.77434Z" fill="white"/>
</svg>
