<svg width="11" height="21" viewBox="0 0 11 21" fill="none" xmlns="http://www.w3.org/2000/svg">
<path d="M0.761595 18.5271C0.675106 18.6232 0.607493 18.7363 0.562612 18.8599C0.517732 18.9835 0.496465 19.1151 0.500025 19.2474C0.503586 19.3796 0.531905 19.5098 0.583365 19.6305C0.634825 19.7512 0.708417 19.8601 0.799942 19.9509C0.891466 20.0418 0.99913 20.1128 1.11679 20.1599C1.23444 20.2071 1.35978 20.2294 1.48566 20.2257C1.61153 20.2219 1.73547 20.1922 1.8504 20.1381C1.96533 20.0841 2.069 20.0068 2.15549 19.9107L10.3041 10.8482C10.4724 10.6612 10.5662 10.4137 10.5662 10.1564C10.5662 9.89912 10.4724 9.6516 10.3041 9.46464L2.15549 0.401159C2.06957 0.302921 1.96593 0.223592 1.85058 0.167783C1.73522 0.111974 1.61046 0.0807964 1.48354 0.0760585C1.35662 0.0713226 1.23007 0.0931236 1.11123 0.140193C0.992402 0.187263 0.883657 0.258664 0.791319 0.350249C0.698979 0.441836 0.624886 0.551782 0.573342 0.673698C0.521799 0.795615 0.493832 0.927075 0.491067 1.06044C0.488302 1.19381 0.510792 1.32642 0.557234 1.45058C0.603676 1.57474 0.673141 1.68797 0.761596 1.78369L8.28901 10.1564L0.761595 18.5271Z" fill="white"/>
</svg>
