<svg width="16" height="16" viewBox="0 0 16 16" fill="none" xmlns="http://www.w3.org/2000/svg">
<path d="M15.0806 14.2194C15.1503 14.2891 15.2056 14.3718 15.2433 14.4629C15.281 14.5539 15.3004 14.6515 15.3004 14.7501C15.3004 14.8486 15.281 14.9462 15.2433 15.0372C15.2056 15.1283 15.1503 15.211 15.0806 15.2807C15.0109 15.3504 14.9282 15.4056 14.8372 15.4433C14.7461 15.4811 14.6485 15.5005 14.55 15.5005C14.4514 15.5005 14.3539 15.4811 14.2628 15.4433C14.1718 15.4056 14.089 15.3504 14.0194 15.2807L7.79998 9.06036L1.5806 15.2807C1.43987 15.4214 1.249 15.5005 1.04998 15.5005C0.850955 15.5005 0.660083 15.4214 0.519353 15.2807C0.378622 15.1399 0.299561 14.9491 0.299561 14.7501C0.299561 14.551 0.378622 14.3602 0.519353 14.2194L6.73967 8.00005L0.519353 1.78068C0.378622 1.63995 0.299561 1.44907 0.299561 1.25005C0.299561 1.05103 0.378622 0.860156 0.519353 0.719426C0.660083 0.578695 0.850955 0.499634 1.04998 0.499634C1.249 0.499634 1.43987 0.578695 1.5806 0.719426L7.79998 6.93974L14.0194 0.719426C14.1601 0.578695 14.351 0.499634 14.55 0.499634C14.749 0.499634 14.9399 0.578695 15.0806 0.719426C15.2213 0.860156 15.3004 1.05103 15.3004 1.25005C15.3004 1.44907 15.2213 1.63995 15.0806 1.78068L8.86029 8.00005L15.0806 14.2194Z" fill="#475569"/>
</svg>
